<svg xmlns="http://www.w3.org/2000/svg" viewBox="0 0 80.83 69.53"><circle cx="41.74" cy="35.09" r="17.73" style="stroke:#000;stroke-miterlimit:10;stroke-width:1.5px;fill:none"/><path d="M41.74 12.99v13.12m0 17.49v13.12M19.88 34.86H33m17.49 0h13.12" style="stroke:#000;stroke-miterlimit:10;stroke-width:1.5px;fill:#fff"/><path d="M44.31 6.37c0 2.21-.82 3.43-2.26 3.43-1.27 0-2.12-1.19-2.14-3.34s.93-3.37 2.25-3.37 2.15 1.22 2.15 3.28Zm-3.53.1c0 1.69.52 2.65 1.32 2.65s1.33-1 1.33-2.71-.43-2.64-1.32-2.64-1.33.94-1.33 2.7Zm6.83-2.32a1.33 1.33 0 0 1-1.34 1.34A1.26 1.26 0 0 1 45 4.2a1.31 1.31 0 0 1 1.32-1.35 1.28 1.28 0 0 1 1.29 1.3Zm-2.11 0a.79.79 0 0 0 .78.82.81.81 0 0 0 .79-.86.79.79 0 0 0-.79-.84.81.81 0 0 0-.78.93Zm21.63 32.5a3.67 3.67 0 0 0 .71 0A2.45 2.45 0 0 0 69.2 36a2.85 2.85 0 0 0 .86-1.73 1.91 1.91 0 0 1-1.53.7 1.88 1.88 0 0 1-1.92-2 2.23 2.23 0 0 1 2.22-2.31c1.33 0 2.15 1.08 2.15 2.74a4.11 4.11 0 0 1-1.12 3.05 3.25 3.25 0 0 1-1.89.87 4.1 4.1 0 0 1-.81 0Zm.32-3.74a1.25 1.25 0 0 0 1.25 1.38 1.45 1.45 0 0 0 1.3-.68.58.58 0 0 0 .08-.32c0-1.11-.41-2-1.33-2-.75.04-1.3.71-1.3 1.62ZM76.07 34c0 2.21-.82 3.43-2.26 3.43-1.27 0-2.13-1.19-2.15-3.34s.94-3.38 2.26-3.38 2.15 1.17 2.15 3.29Zm-3.53.1c0 1.69.52 2.65 1.32 2.65s1.33-1.05 1.33-2.71-.41-2.65-1.32-2.65-1.33.89-1.33 2.66ZM2.51 38.27v-.54l.69-.67c1.66-1.58 2.41-2.42 2.42-3.4a1.16 1.16 0 0 0-1.29-1.27 2.21 2.21 0 0 0-1.33.55l-.28-.62a2.85 2.85 0 0 1 1.84-.66 1.83 1.83 0 0 1 2 1.89c0 1.2-.87 2.17-2.24 3.49l-.52.48h2.86v.73Zm9.35-6.5v.58L9 38.27h-.88l2.82-5.75H7.76v-.73ZM17.09 35c0 2.21-.82 3.43-2.26 3.43-1.27 0-2.13-1.19-2.15-3.34s.94-3.38 2.26-3.38 2.15 1.17 2.15 3.29Zm-3.53.1c0 1.69.52 2.65 1.32 2.65s1.33-1.05 1.33-2.71-.41-2.65-1.32-2.65-1.33.89-1.33 2.66Zm22.49 25.14-1.12.61-.17-.67 1.41-.76h.75v6.5h-.85Zm3.15 4.03a1.86 1.86 0 0 1 1.28-1.74 1.61 1.61 0 0 1-1-1.46 1.82 1.82 0 0 1 2-1.73 1.68 1.68 0 0 1 1.89 1.6 1.65 1.65 0 0 1-1.07 1.52 1.8 1.8 0 0 1 1.31 1.68A2 2 0 0 1 41.37 66c-1.37 0-2.17-.78-2.17-1.73Zm3.49 0c0-.79-.55-1.17-1.43-1.42a1.4 1.4 0 0 0-1.16 1.34 1.2 1.2 0 0 0 1.29 1.24 1.18 1.18 0 0 0 1.3-1.2ZM40.27 61c0 .65.49 1 1.24 1.2a1.28 1.28 0 0 0 1-1.18 1 1 0 0 0-1.1-1.06A1 1 0 0 0 40.27 61Zm8.45 1.6c0 2.21-.82 3.43-2.26 3.43-1.27 0-2.12-1.19-2.14-3.34s.93-3.38 2.25-3.38 2.15 1.22 2.15 3.29Zm-3.53.1c0 1.69.52 2.65 1.32 2.65s1.33-1 1.33-2.71S47.43 60 46.52 60s-1.33.93-1.33 2.7Z"/></svg>